<?xml version="1.0" standalone="no"?>
<!DOCTYPE svg PUBLIC "-//W3C//DTD SVG 20010904//EN"
 "http://www.w3.org/TR/2001/REC-SVG-20010904/DTD/svg10.dtd">
<svg version="1.0" xmlns="http://www.w3.org/2000/svg"
 width="256.000000pt" height="256.000000pt" viewBox="0 0 256.000000 256.000000"
 preserveAspectRatio="xMidYMid meet">
<metadata>
Created by potrace 1.11, written by Peter Selinger 2001-2013
</metadata>
<g transform="translate(0.000000,256.000000) scale(0.100000,-0.100000)"
fill="#000000" stroke="none">
<path d="M1116 2549 c-411 -57 -771 -307 -965 -671 -151 -282 -191 -611 -111
-924 106 -412 435 -760 845 -892 148 -48 214 -57 410 -57 161 1 191 4 282 27
492 127 850 497 959 993 24 112 30 352 10 464 -66 375 -312 721 -646 908 -93
52 -228 104 -339 129 -122 27 -335 39 -445 23z m310 -697 c80 -42 125 -115
144 -239 7 -43 10 -191 8 -384 -3 -303 -4 -316 -26 -364 -51 -111 -141 -166
-272 -168 -65 0 -87 4 -134 27 -56 28 -106 79 -142 146 -17 31 -19 63 -22 253
l-3 217 210 0 211 0 0 40 0 40 -215 0 -215 0 0 30 0 30 215 0 215 0 0 40 0 40
-210 0 -210 0 0 48 c0 85 65 188 144 229 92 48 225 55 302 15z"/>
</g>
</svg>
