<svg xmlns="http://www.w3.org/2000/svg" width="301" height="46"><path fill="#002873" d="M295.512 4.52c.245.189.196.45.196.538 0 .088.009.313-.196.474-.356.282-1.347.151-1.347.151V4.394s1.103-.064 1.347.126zm2.051 4.757l-1.152-2.617c.254-.118.488-.313.683-.625.196-.293.313-.625.313-.977s-.098-.703-.274-1.016c-.156-.312-.41-.546-.722-.742a2.702 2.702 0 0 0-1.153-.254h-2.773v6.23h1.68V6.934h.527l.938 2.344zm1.172-4.883c.215.547.332 1.133.332 1.777 0 .82-.195 1.563-.566 2.246a4.088 4.088 0 0 1-1.543 1.563c-.664.371-1.387.547-2.188.547-.82 0-1.543-.196-2.168-.547a4.282 4.282 0 0 1-1.562-1.563c-.371-.664-.547-1.425-.547-2.246-.02-.859.156-1.62.547-2.285a4.085 4.085 0 0 1 1.543-1.562 4.598 4.598 0 0 1 2.187-.547c.625 0 1.192.117 1.7.332.527.234.995.527 1.386.918.39.37.684.82.879 1.367zm1.562 4.062a5.836 5.836 0 0 0 .47-2.285c0-.8-.157-1.582-.47-2.324a5.967 5.967 0 0 0-1.308-1.894 5.752 5.752 0 0 0-1.914-1.309 5.86 5.86 0 0 0-2.305-.469c-.8 0-1.562.156-2.285.469a6.592 6.592 0 0 0-1.934 1.25 6.297 6.297 0 0 0-1.289 1.953 5.954 5.954 0 0 0-.468 2.324c0 .782.156 1.543.468 2.285.313.782.743 1.426 1.29 1.934a5.643 5.643 0 0 0 1.933 1.27 5.401 5.401 0 0 0 2.285.488c.8 0 1.563-.156 2.305-.488.742-.313 1.387-.723 1.914-1.27a6.042 6.042 0 0 0 1.308-1.934zm-244.893 7.86a9.633 9.633 0 0 1 9.634 9.634 9.633 9.633 0 0 1-9.634 9.631 9.633 9.633 0 0 1-9.632-9.631 9.633 9.633 0 0 1 9.632-9.634zm0-10.241A19.875 19.875 0 0 0 35.53 25.95a19.875 19.875 0 0 0 19.875 19.875A19.875 19.875 0 0 0 75.28 25.95 19.875 19.875 0 0 0 55.404 6.075zm216.727 19.589h6.002l-2.99-9.785zm12.163 20.158l-3.171-10.373h-11.96l-3.193 10.373h-10.192l10.01-32.797c1.36-4.666 4.486-6.998 9.355-6.998 4.847 0 7.973 2.332 9.332 6.998l10.057 32.797zm-40.132 0V6.072h9.762v39.75zM216.706 15.88v20.159c9.422 0 14.157-3.375 14.157-10.148 0-6.659-4.735-10.01-14.157-10.01zm0-9.852c16.106 0 24.16 6.636 24.16 19.863 0 13.296-8.054 19.932-24.16 19.932h-10.002V6.027zm-18.93 24.756h-11.632v5.255h17.096v9.784h-17.232c-6.465 0-9.674-3.261-9.674-9.784V6.027h26.86v9.83h-17.05v5.141h11.632zm-44.131-15.04v9.808c6.727 0 10.115-1.631 10.115-4.893 0-3.261-3.364-4.915-10.115-4.915zm-9.976-9.716h12.945c11.46 0 17.191 4.892 17.191 14.654 0 9.785-5.521 14.677-16.518 14.677h-3.62v10.464h-9.998zm-34.477.067h31.257v9.808h-10.736v29.92h-9.785v-29.92h-10.736zm-30.93 39.728L78.24 15.88c0-5.765 4.316-9.852 10.025-9.852h18.198v9.852H88.264v5.142h13.845v9.762H88.264v15.04zM.234 36.038v9.784c5.762 0 10.722-.317 14.88-.906 3.007-.43 5.663-1.019 7.917-1.79 1.704-.588 3.182-1.267 4.485-2.038 2.079-1.245 3.657-2.763 4.71-4.575.525-.883.926-1.834 1.202-2.831l.326-2.854c0-1.042-.15-2.038-.426-3.012a11.131 11.131 0 0 0-1.153-2.537c-.801-1.291-1.929-2.401-3.332-3.352a20.184 20.184 0 0 0-3.231-1.654c-1.153-.43-2.957-.996-5.412-1.698-1.628-.453-2.78-.793-3.457-1.042-.751-.25-1.353-.499-1.854-.77a2.886 2.886 0 0 1-.826-.521c-.2-.136-.276-.25-.276-.385h17.436V6.072h-17.36c-4.285 0-7.341 1.902-9.17 5.73-1.954 4.077-1.228 7.792 2.13 11.121.926.929 2.054 1.744 3.382 2.446 1.427.748 3.432 1.495 5.987 2.22 2.756.816 4.083 1.178 3.933 1.133.927.294 1.654.566 2.205.815l1.027.544c.45.317.551.838.3 1.585-.275.363-.726.748-1.327 1.11-1.553.951-3.933 1.699-7.14 2.22-3.958.702-8.944 1.042-14.956 1.042z"/></svg>