<?xml version="1.0" encoding="utf-8"?>
<!-- Generator: Adobe Illustrator 23.0.1, SVG Export Plug-In . SVG Version: 6.00 Build 0)  -->
<svg version="1.1" id="Layer_1" xmlns="http://www.w3.org/2000/svg" xmlns:xlink="http://www.w3.org/1999/xlink" x="0px" y="0px"
	 viewBox="0 0 518.4 53.6" style="enable-background:new 0 0 518.4 53.6;" xml:space="preserve">
<style type="text/css">
	.st0{fill:#454646;}
	.st1{fill:#D1155F;}
	.st2{fill:#830F5F;}
	.st3{fill:#F7B90D;}
	.st4{fill:#ED4250;}
</style>
<g>
	<g>
		<g>
			<path class="st0" d="M136.9,45L125.7,9.6h3.8c2.8,8.9,8.7,27.6,9.4,31.7h0.1c0.9-4.4,7.1-23,10-31.7h3.7c2.6,8,9,28.2,9.7,31.6
				h0.1c1.1-4.9,7.3-23.2,10.2-31.6h3.6L164.3,45h-3.9c-2.6-8.2-8.9-27.6-9.7-31.5h-0.1c-0.8,4-6.9,22.3-9.9,31.5L136.9,45L136.9,45
				z"/>
			<path class="st0" d="M180.1,7.5h3.4v5.4h-3.4V7.5z M180.1,20.1h3.4v25h-3.4V20.1z"/>
			<path class="st0" d="M190.9,26.4c0-2.1,0-4.4-0.1-6.3h3.2c0.1,0.9,0.1,3.2,0.2,5.2c1-2.7,3.7-5.9,9.2-5.9c5.6,0,9.4,3.5,9.4,10.5
				V45h-3.4V30.6c0-4.6-1.7-8.1-6.7-8.1c-5.7,0-8.5,4.5-8.5,10.8V45h-3.4L190.9,26.4L190.9,26.4z"/>
			<path class="st0" d="M242.7,7.5v30.2c0,2.4,0,4.9,0.1,7.3h-3.2c-0.1-1.2-0.2-2.8-0.2-4.2c-1.2,2.2-3.4,4.9-9.3,4.9
				c-7.2,0-11.9-5.5-11.9-13c0-8.1,5.9-13.4,12.4-13.4c6.1,0,8.1,3,8.8,4.4V7.5H242.7z M221.6,32.7c0,4.9,2.9,10,8.8,10
				c6.6,0,9.1-4.3,9.1-10.3c0-6-2-10-8.9-10C224.6,22.4,221.6,27.5,221.6,32.7z"/>
			<path class="st0" d="M273.4,32.5c0,6.6-4.1,13.2-12.7,13.2c-7.9,0-12.6-6.2-12.6-13.1c0-7.3,4.9-13.2,12.8-13.2
				C268.9,19.4,273.4,25.8,273.4,32.5z M251.6,32.6c0,5.1,3.3,10.1,9.2,10.1c6.2,0,9.2-4.7,9.2-10.1c0-5.5-3.4-10.2-9.3-10.2
				C254.5,22.4,251.6,27.1,251.6,32.6z"/>
			<path class="st0" d="M279.6,20.1c5,15.4,6.1,18.8,6.8,21.5h0c0.6-2.3,1.8-5.6,7.5-21.5h3.2c5.5,15.5,6.9,19.3,7.3,21.2h0
				c0.6-2.3,2.4-8.1,7-21.2h3.4l-8.8,25h-3.3c-3.1-8.8-6.5-18.3-7.3-21h0c-0.6,2.2-3.4,10.4-7.3,21h-3.6l-8.4-25
				C276.1,20.1,279.6,20.1,279.6,20.1z"/>
			<path class="st0" d="M320.1,37.5c1,3.4,3.8,5.4,8.7,5.4c5.3,0,7.2-1.9,7.2-4.6c0-2.4-1.3-4.1-8-4.8c-8.3-1-10.1-3.9-10.1-7
				c0-3,2.4-7.1,10-7.1c8.4,0,10.5,4.6,10.8,7.3h-3.4c-0.4-1.6-1.4-4.5-7.6-4.5c-5.2,0-6.3,2.3-6.3,4c0,2.2,1.3,3.5,7.3,4.3
				c8.9,1.1,10.8,3.8,10.8,7.6c0,4.5-3.3,7.6-10.8,7.6c-7.3,0-11-3.2-11.9-8.2C316.7,37.5,320.1,37.5,320.1,37.5z"/>
			<path class="st0" d="M392.8,35c-2.1,6-6.3,10.8-15.8,10.8c-11.2,0-17.6-8-17.6-18.4s7.1-18.6,17.8-18.6c9.8,0,14.3,5.3,15.8,11.1
				h-3.7c-1.8-4.4-5-7.9-12.1-7.9c-8.5,0-13.9,6.4-13.9,15.2c0,8.6,5.4,15.3,14,15.3c7.2,0,10-3.2,12-7.5H392.8z"/>
			<path class="st0" d="M400.5,33.3c0.3,5.5,3.9,9.5,9.3,9.5c4.2,0,6.6-1.9,8.1-4.6h3.4c-1.2,3.4-4.6,7.6-11.7,7.6
				c-8.3,0-12.4-6.4-12.4-13.1c0-7.7,5-13.3,12.3-13.3c9.2,0,12.2,7,12.2,13c0,0.3,0,0.6,0,1L400.5,33.3L400.5,33.3z M418,30.6
				c-0.2-3.4-2-8.3-8.7-8.3c-5.4,0-8.2,3.6-8.7,8.3C400.6,30.6,418,30.6,418,30.6z"/>
			<path class="st0" d="M427.1,26.4c0-2.1,0-4.4,0-6.3h3.2c0.1,0.9,0.1,3.2,0.2,5.2c1-2.7,3.7-5.9,9.2-5.9c5.6,0,9.4,3.5,9.4,10.5
				V45h-3.4V30.6c0-4.6-1.7-8.1-6.7-8.1c-5.7,0-8.5,4.5-8.5,10.8V45h-3.4L427.1,26.4L427.1,26.4z"/>
			<path class="st0" d="M452.4,20.1h5v-8.3h3.4v8.3h6.7v2.9h-6.7v14.9c0,3.2,0.8,4.5,3.6,4.5c0.7,0,1.8,0,2.5-0.2v2.7
				c-1,0.4-2.1,0.4-3.4,0.4c-4.7,0-6.1-2.2-6.1-7.1V23h-5L452.4,20.1L452.4,20.1z"/>
			<path class="st0" d="M471.5,26.9c0-2.2,0-4.5,0-6.8h3.2c0.1,0.7,0.2,3.2,0.2,5.9c1.7-4,5.4-6.6,10.1-6.6v3.4
				c-5.7,0-10.1,3.9-10.1,11.3V45h-3.4V26.9z"/>
			<path class="st0" d="M508.5,39.2c0,2.1,0.1,5.3,0.2,5.8h-3.2c-0.2-1-0.3-3.1-0.3-4c-1.3,2.8-4,4.7-9.5,4.7c-7,0-9.5-4.3-9.5-8
				c0-6.3,5.7-8.1,12.6-8.1c3.4,0,5.5,0,6.3,0v-1.5c0-3-1.3-5.9-7.1-5.9c-5.2,0-6.5,2.4-7,5.1h-3.4c0.3-3.4,2.5-7.9,10.4-7.9
				c8.2,0,10.4,4.2,10.4,8.3L508.5,39.2L508.5,39.2z M505.3,32.3c-0.8,0-2.5,0-6.2,0c-6.3,0-9.4,1.4-9.4,5.2c0,2.8,2,5.2,6.6,5.2
				c7.4,0,9-4.6,9-9.1L505.3,32.3L505.3,32.3z"/>
			<path class="st0" d="M515,45V7.5h3.3V45L515,45L515,45z"/>
		</g>
	</g>
	<rect x="43.3" y="5" transform="matrix(0.7071 -0.7071 0.7071 0.7071 4.1813 44.1176)" class="st1" width="24.1" height="24.1"/>
	
		<rect x="62.5" y="24.1" transform="matrix(0.7071 -0.7071 0.7071 0.7071 -3.7556 63.2845)" class="st2" width="24.1" height="24.1"/>
	<rect x="5" y="5" transform="matrix(0.7071 -0.7071 0.7071 0.7071 -7.0423 17.0133)" class="st3" width="24.1" height="24.1"/>
	
		<rect x="24.2" y="24.1" transform="matrix(0.7071 -0.7071 0.7071 0.7071 -14.9844 36.1813)" class="st4" width="24.1" height="24.1"/>
	<path class="st2" d="M101.8,22.8c-4.6,4.6-11.9,4.6-16.5,0s-4.6-11.9,0-16.5s11.9-4.6,16.5,0l-4.6,4.6c-2-2-5.2-2-7.2,0
		s-2,5.2,0,7.2s5.2,2,7.2,0L101.8,22.8z"/>
</g>
</svg>
